<svg width="1440" height="800" viewBox="0 0 1440 800" fill="none" xmlns="http://www.w3.org/2000/svg">
  <!-- Large circles -->
  <circle cx="100" cy="650" r="300" fill="#4ade80" fill-opacity="0.1"/>
  <circle cx="1300" cy="150" r="250" fill="#4ade80" fill-opacity="0.08"/>
  
  <!-- Medium circles -->
  <circle cx="250" cy="100" r="180" fill="#22c55e" fill-opacity="0.07"/>
  <circle cx="1100" cy="700" r="200" fill="#22c55e" fill-opacity="0.06"/>
  
  <!-- Smaller shapes -->
  <circle cx="600" cy="50" r="120" fill="#16a34a" fill-opacity="0.05"/>
  <circle cx="800" cy="750" r="100" fill="#16a34a" fill-opacity="0.07"/>
  
  <!-- Abstract curves and lines -->
  <path d="M-100,300 Q400,100 800,400 T1600,300" stroke="#4ade80" stroke-width="2" stroke-opacity="0.2" fill="none"/>
  <path d="M-100,500 Q300,700 800,600 T1600,500" stroke="#16a34a" stroke-width="2" stroke-opacity="0.15" fill="none"/>
  
  <!-- Decorative elements -->
  <rect x="50" y="350" width="40" height="40" rx="10" fill="#22c55e" fill-opacity="0.1"/>
  <rect x="1300" y="450" width="30" height="30" rx="8" fill="#22c55e" fill-opacity="0.1"/>
  <rect x="700" y="150" width="50" height="50" rx="15" fill="#16a34a" fill-opacity="0.08"/>
  <rect x="400" y="650" width="35" height="35" rx="10" fill="#16a34a" fill-opacity="0.08"/>
  
  <!-- Small dots pattern -->
  <circle cx="200" cy="200" r="5" fill="#4ade80" fill-opacity="0.2"/>
  <circle cx="220" cy="220" r="3" fill="#4ade80" fill-opacity="0.2"/>
  <circle cx="240" cy="190" r="4" fill="#4ade80" fill-opacity="0.2"/>
  
  <circle cx="1200" cy="600" r="5" fill="#4ade80" fill-opacity="0.2"/>
  <circle cx="1220" cy="620" r="3" fill="#4ade80" fill-opacity="0.2"/>
  <circle cx="1240" cy="590" r="4" fill="#4ade80" fill-opacity="0.2"/>
</svg>