<?xml version="1.0" encoding="UTF-8" standalone="no"?>
<svg width="1200" height="600" viewBox="0 0 1200 600" xmlns="http://www.w3.org/2000/svg">
  <defs>
    <linearGradient id="sky-gradient" x1="0%" y1="0%" x2="0%" y2="100%">
      <stop offset="0%" style="stop-color:#2980b9;stop-opacity:1"/>
      <stop offset="100%" style="stop-color:#6dd5fa;stop-opacity:1"/>
    </linearGradient>
    <linearGradient id="mountain-gradient" x1="0%" y1="0%" x2="0%" y2="100%">
      <stop offset="0%" style="stop-color:#4b6cb7;stop-opacity:1"/>
      <stop offset="100%" style="stop-color:#182848;stop-opacity:1"/>
    </linearGradient>
    <linearGradient id="grass-gradient" x1="0%" y1="0%" x2="0%" y2="100%">
      <stop offset="0%" style="stop-color:#56ab2f;stop-opacity:1"/>
      <stop offset="100%" style="stop-color:#a8e063;stop-opacity:1"/>
    </linearGradient>
  </defs>
  
  <!-- Sky -->
  <rect width="1200" height="600" fill="url(#sky-gradient)"/>
  
  <!-- Sun -->
  <circle cx="900" cy="100" r="60" fill="#ffeb3b" opacity="0.9">
    <animate attributeName="opacity" values="0.8;1;0.8" dur="5s" repeatCount="indefinite" />
  </circle>
  <g stroke="#ffeb3b" stroke-width="2" stroke-opacity="0.5">
    <line x1="900" y1="20" x2="900" y2="0"/>
    <line x1="900" y1="180" x2="900" y2="200"/>
    <line x1="820" y1="100" x2="800" y2="100"/>
    <line x1="980" y1="100" x2="1000" y2="100"/>
    <line x1="842" y1="42" x2="828" y2="28"/>
    <line x1="958" y1="158" x2="972" y2="172"/>
    <line x1="842" y1="158" x2="828" y2="172"/>
    <line x1="958" y1="42" x2="972" y2="28"/>
  </g>
  
  <!-- Clouds -->
  <g fill="#ffffff" opacity="0.7">
    <ellipse cx="200" cy="120" rx="60" ry="40"/>
    <ellipse cx="250" cy="120" rx="50" ry="30"/>
    <ellipse cx="300" cy="120" rx="60" ry="35"/>
    
    <ellipse cx="700" cy="100" rx="50" ry="30"/>
    <ellipse cx="740" cy="100" rx="40" ry="25"/>
    <ellipse cx="780" cy="100" rx="45" ry="30"/>
    
    <ellipse cx="1100" cy="150" rx="55" ry="35"/>
    <ellipse cx="1150" cy="150" rx="45" ry="30"/>
  </g>
  
  <!-- Mountains -->
  <path d="M0,350 L150,200 L300,320 L400,180 L500,300 L600,220 L700,350 L800,200 L900,280 L1000,180 L1100,250 L1200,300 L1200,600 L0,600 Z" 
        fill="url(#mountain-gradient)"/>
  
  <!-- Hills -->
  <path d="M0,400 Q300,300 600,400 T1200,400 L1200,600 L0,600 Z" 
        fill="url(#grass-gradient)" opacity="0.8"/>
  
  <!-- Trail -->
  <path d="M600,400 C650,450 700,430 750,450 C800,470 850,460 900,480 C950,500 1000,490 1050,500 C1100,510 1150,505 1200,520 L1200,550 L600,550 Z" 
        fill="#d5b789" opacity="0.7"/>
  
  <!-- Trees -->
  <g>
    <!-- Tree 1 -->
    <rect x="150" y="380" width="10" height="30" fill="#795548"/>
    <circle cx="155" cy="360" r="20" fill="#388e3c"/>
    
    <!-- Tree 2 -->
    <rect x="350" y="370" width="10" height="35" fill="#795548"/>
    <circle cx="355" cy="345" r="25" fill="#388e3c"/>
    
    <!-- Tree 3 -->
    <rect x="950" y="390" width="12" height="40" fill="#795548"/>
    <circle cx="956" cy="360" r="30" fill="#388e3c"/>
    
    <!-- Tree 4 -->
    <rect x="1100" y="370" width="10" height="30" fill="#795548"/>
    <circle cx="1105" cy="350" r="22" fill="#388e3c"/>
  </g>
</svg>