<?xml version="1.0" encoding="UTF-8" standalone="no"?>
<svg width="600" height="600" viewBox="0 0 600 600" xmlns="http://www.w3.org/2000/svg">
  <defs>
    <linearGradient id="runner-gradient" x1="0%" y1="0%" x2="100%" y2="100%">
      <stop offset="0%" style="stop-color:#ff5e3a;stop-opacity:1"/>
      <stop offset="100%" style="stop-color:#ff2a68;stop-opacity:1"/>
    </linearGradient>
  </defs>
  
  <!-- Runner Silhouette -->
  <g fill="url(#runner-gradient)">
    <!-- Head -->
    <circle cx="400" cy="120" r="40"/>
    
    <!-- Torso -->
    <path d="M380,160 L340,280 L410,300 L430,190 Z"/>
    
    <!-- Legs -->
    <path d="M340,280 L280,450 L320,460 L360,320 Z"/>
    <path d="M410,300 L480,420 L440,440 L390,320 Z"/>
    
    <!-- Arms -->
    <path d="M380,170 L280,220 L300,260 L370,200 Z"/>
    <path d="M420,190 L500,120 L480,90 L410,170 Z"/>
  </g>
  
  <!-- Motion Lines -->
  <g stroke="#ffffff" stroke-width="4" stroke-linecap="round" stroke-opacity="0.7">
    <path d="M240,180 L200,170" />
    <path d="M230,220 L180,210" />
    <path d="M220,260 L170,250" />
    <path d="M260,400 L210,390" />
    <path d="M450,450 L500,460" />
  </g>
</svg>