<?xml version="1.0" encoding="UTF-8" standalone="no"?>
<svg width="600" height="600" viewBox="0 0 600 600" xmlns="http://www.w3.org/2000/svg">
  <defs>
    <linearGradient id="lifter-gradient" x1="0%" y1="0%" x2="100%" y2="100%">
      <stop offset="0%" style="stop-color:#4776E6;stop-opacity:1"/>
      <stop offset="100%" style="stop-color:#8E54E9;stop-opacity:1"/>
    </linearGradient>
  </defs>
  
  <!-- Weight Lifter Silhouette -->
  <g fill="url(#lifter-gradient)">
    <!-- Head -->
    <circle cx="300" cy="100" r="40"/>
    
    <!-- Torso -->
    <path d="M280,140 L270,300 L330,300 L320,140 Z"/>
    
    <!-- Arms -->
    <path d="M270,150 L150,170 L140,210 L260,200 Z"/>
    <path d="M330,150 L450,170 L460,210 L340,200 Z"/>
    
    <!-- Legs -->
    <path d="M270,300 L250,450 L280,450 L290,300 Z"/>
    <path d="M330,300 L350,450 L320,450 L310,300 Z"/>
    
    <!-- Barbell -->
    <rect x="100" y="190" width="400" height="10" rx="5"/>
    <circle cx="120" cy="190" r="30"/>
    <circle cx="480" cy="190" r="30"/>
  </g>
  
  <!-- Motion Accents -->
  <g stroke="#ffffff" stroke-width="4" stroke-dasharray="8,4" stroke-opacity="0.7">
    <path d="M100,220 L500,220" />
    <path d="M300,50 L300,20" />
  </g>
</svg>