<?xml version="1.0" encoding="UTF-8" standalone="no"?>
<svg width="600" height="600" viewBox="0 0 600 600" xmlns="http://www.w3.org/2000/svg">
  <defs>
    <linearGradient id="yoga-gradient" x1="0%" y1="0%" x2="100%" y2="100%">
      <stop offset="0%" style="stop-color:#00c9ff;stop-opacity:1"/>
      <stop offset="100%" style="stop-color:#92fe9d;stop-opacity:1"/>
    </linearGradient>
  </defs>
  
  <!-- Yoga Pose Silhouette -->
  <g fill="url(#yoga-gradient)">
    <!-- Head -->
    <circle cx="300" cy="150" r="35"/>
    
    <!-- Upper Body -->
    <path d="M300,185 L250,250 L350,250 Z"/>
    
    <!-- Arms -->
    <path d="M250,250 L150,200 L140,240 L250,270 Z"/>
    <path d="M350,250 L450,200 L460,240 L350,270 Z"/>
    
    <!-- Lower Body - Tree Pose -->
    <path d="M300,250 L300,350 Q340,390 300,430 L300,500 L330,500 L330,430 Q380,380 330,330 L330,250 Z"/>
    <path d="M300,250 L270,300 L250,400 L280,400 L290,320 L300,250 Z"/>
  </g>
  
  <!-- Meditation Elements -->
  <g stroke="#ffffff" stroke-width="2" stroke-opacity="0.6" fill="none">
    <circle cx="300" cy="150" r="50" stroke-dasharray="5,5"/>
    <circle cx="300" cy="150" r="70" stroke-dasharray="5,5"/>
    <circle cx="300" cy="150" r="90" stroke-dasharray="5,5"/>
  </g>
  
  <!-- Nature Elements - Grass -->
  <path d="M100,500 C150,450 170,480 200,500 C230,460 260,480 300,500 C340,460 370,480 400,500 C430,460 450,470 500,500 L500,550 L100,550 Z" 
        fill="#92fe9d" fill-opacity="0.3"/>
</svg>