<?xml version="1.0" encoding="UTF-8"?>
<svg width="512" height="512" viewBox="0 0 512 512" xmlns="http://www.w3.org/2000/svg">
  <rect width="512" height="512" fill="#0f172a"/>
  <circle cx="256" cy="196" r="110" fill="#1f2937"/>
  <circle cx="256" cy="170" r="80" fill="#374151"/>
  <path d="M186 160 C186 125 226 105 256 105 C286 105 326 125 326 160 C326 195 296 220 256 220 C216 220 186 195 186 160" fill="#4b5563"/>
  <path d="M210 280 L210 340 L302 340 L302 280 L275 265 L256 270 L237 265 L210 280" fill="#ec4899"/>
  <path d="M225 340 L235 450 L255 450 L265 340 L225 340" fill="#1f2937"/>
  <path d="M170 210 L180 240 L200 250 L190 280 L180 320 L160 360 L170 380 L190 370 L210 340" fill="#1f2937"/>
  <path d="M342 210 L332 240 L312 250 L322 280 L332 320 L352 360 L342 380 L322 370 L302 340" fill="#1f2937"/>
  <path d="M256 170 C241 170 221 165 210 150 C220 165 235 160 256 160 C277 160 292 165 302 150 C291 165 271 170 256 170" fill="#d1d5db"/>
  <path d="M220 105 L292 105 L292 125 L256 130 L220 125 Z" fill="#d1d5db"/>
  <path d="M235 220 L277 220 L275 240 L237 240 Z" fill="#ec4899"/>
  <path d="M230 250 L282 250 L280 280 L232 280 Z" fill="#ec4899"/>
  <path d="M225 340 L225 375 L255 375 L265 340 L225 340" fill="#ec4899"/>
  <ellipse cx="226" cy="173" rx="6" ry="9" fill="#000000"/>
  <ellipse cx="286" cy="173" rx="6" ry="9" fill="#000000"/>
  <path d="M240 195 L273 195 A15 10 0 0 1 240 195" fill="#ef4444" stroke="#ef4444" stroke-width="1"/>
</svg>