<?xml version="1.0" encoding="UTF-8"?>
<svg width="512" height="512" viewBox="0 0 512 512" xmlns="http://www.w3.org/2000/svg">
  <rect width="512" height="512" fill="#0f172a"/>
  <circle cx="256" cy="196" r="110" fill="#1f2937"/>
  <circle cx="256" cy="170" r="80" fill="#374151"/>
  <path d="M186 160 C186 125 226 105 256 105 C286 105 326 125 326 160 C326 195 296 220 256 220 C216 220 186 195 186 160" fill="#4b5563"/>
  <path d="M195 280 L195 350 L317 350 L317 280 L280 260 L256 270 L232 260 L195 280" fill="#22c55e"/>
  <path d="M215 350 L215 450 L245 450 L245 350 L215 350" fill="#1f2937"/>
  <path d="M267 350 L267 450 L297 450 L297 350 L267 350" fill="#1f2937"/>
  <path d="M160 210 L170 240 L190 250 L180 280 L170 320 L150 360 L160 380 L180 370 L195 350" fill="#1f2937"/>
  <path d="M352 210 L342 240 L322 250 L332 280 L342 320 L362 360 L352 380 L332 370 L317 350" fill="#1f2937"/>
  <path d="M256 170 C241 170 221 165 210 150 C220 165 235 160 256 160 C277 160 292 165 302 150 C291 165 271 170 256 170" fill="#d1d5db"/>
  <path d="M226 110 L286 110 L286 130 L256 135 L226 130 Z" fill="#d1d5db"/>
  <path d="M246 220 L266 220 L264 240 L248 240 Z" fill="#22c55e"/>
  <path d="M240 250 L272 250 L270 280 L242 280 Z" fill="#22c55e"/>
  <path d="M215 350 L215 385 L235 385 L235 350 L215 350" fill="#22c55e"/>
  <path d="M277 350 L277 385 L297 385 L297 350 L277 350" fill="#22c55e"/>
</svg>