<?xml version="1.0" encoding="UTF-8"?>
<svg width="512" height="512" viewBox="0 0 512 512" xmlns="http://www.w3.org/2000/svg">
  <rect width="512" height="512" fill="#0f172a"/>
  <circle cx="256" cy="196" r="110" fill="#1f2937"/>
  <circle cx="256" cy="170" r="80" fill="#374151"/>
  <path d="M186 170 C186 135 226 115 256 115 C286 115 326 135 326 170 C326 205 296 230 256 230 C216 230 186 205 186 170" fill="#4b5563"/>
  <path d="M200 290 L200 350 L312 350 L312 290 L280 270 L256 280 L232 270 L200 290" fill="#0ea5e9"/>
  <path d="M220 350 L220 450 L250 450 L250 350 L220 350" fill="#1f2937"/>
  <path d="M262 350 L262 450 L292 450 L292 350 L262 350" fill="#1f2937"/>
  <path d="M170 220 L180 250 L190 260 L180 290 L170 330 L150 370 L160 390 L180 380 L200 350" fill="#1f2937"/>
  <path d="M342 220 L332 250 L322 260 L332 290 L342 330 L362 370 L352 390 L332 380 L312 350" fill="#1f2937"/>
  <path d="M230 180 C230 170 242 170 256 170 C270 170 282 170 282 180" stroke="#5b5b5b" stroke-width="2" fill="none"/>
</svg>