<?xml version="1.0" encoding="UTF-8"?>
<svg width="512" height="512" viewBox="0 0 512 512" xmlns="http://www.w3.org/2000/svg">
  <rect width="512" height="512" fill="#0f172a"/>
  <circle cx="256" cy="196" r="110" fill="#1f2937"/>
  <circle cx="256" cy="170" r="80" fill="#374151"/>
  <path d="M186 170 C186 135 226 115 256 115 C286 115 326 135 326 170 C326 205 296 230 256 230 C216 230 186 205 186 170" fill="#4b5563"/>
  <path d="M206 290 L206 340 L306 340 L306 290 L280 270 L256 275 L232 270 L206 290" fill="#64748b"/>
  <path d="M226 340 L226 450 L246 450 L246 340 L226 340" fill="#1f2937"/>
  <path d="M266 340 L266 450 L286 450 L286 340 L266 340" fill="#1f2937"/>
  <path d="M175 220 L185 250 L195 260 L185 290 L175 330 L155 370 L165 390 L185 380 L206 340" fill="#1f2937"/>
  <path d="M337 220 L327 250 L317 260 L327 290 L337 330 L357 370 L347 390 L327 380 L306 340" fill="#1f2937"/>
  <path d="M256 170 C241 170 221 165 210 150 C220 165 235 160 256 160 C277 160 292 165 302 150 C291 165 271 170 256 170" fill="#d1d5db"/>
  <circle cx="230" cy="170" r="8" fill="#000000"/>
  <circle cx="282" cy="170" r="8" fill="#000000"/>
  <path d="M246 200 L266 200 C266 210 246 210 246 200" fill="#1f2937" stroke="#1f2937" stroke-width="1"/>
  <path d="M236 340 L236 370 L256 370 L276 370 L276 340 L236 340" fill="#64748b"/>
  <path d="M190 130 C190 80 320 80 320 130" stroke="#d1d5db" stroke-width="3" fill="none"/>
  <circle cx="256" cy="90" r="20" fill="#d1d5db"/>
</svg>