<svg width="800" height="600" xmlns="http://www.w3.org/2000/svg">
  <defs>
    <linearGradient id="gradient1" x1="0%" y1="0%" x2="100%" y2="100%">
      <stop offset="0%" style="stop-color:#333333;stop-opacity:1" />
      <stop offset="100%" style="stop-color:#111111;stop-opacity:1" />
    </linearGradient>
    <radialGradient id="highlightGradient" cx="50%" cy="30%" r="50%" fx="50%" fy="30%">
      <stop offset="0%" style="stop-color:#666666;stop-opacity:0.8" />
      <stop offset="100%" style="stop-color:#000000;stop-opacity:0" />
    </radialGradient>
  </defs>
  <rect width="100%" height="100%" fill="url(#gradient1)" />
  <circle cx="400" cy="200" r="150" fill="url(#highlightGradient)" />
  <text x="400" y="500" font-family="Arial" font-size="36" fill="white" text-anchor="middle" font-weight="bold">CROSSFIT COACH</text>
  
  <!-- Silhouette of a fitness trainer -->
  <path d="M400,100 C430,100 460,130 460,170 C460,210 430,240 400,240 C370,240 340,210 340,170 C340,130 370,100 400,100 Z" fill="#222" />
  <path d="M380,240 L380,400 C380,420 370,440 350,450 L340,460 L340,480 L460,480 L460,460 L450,450 C430,440 420,420 420,400 L420,240 Z" fill="#222" />
</svg>