<svg width="800" height="600" xmlns="http://www.w3.org/2000/svg">
  <defs>
    <linearGradient id="gradient1" x1="0%" y1="0%" x2="100%" y2="100%">
      <stop offset="0%" style="stop-color:#222222;stop-opacity:1" />
      <stop offset="100%" style="stop-color:#000000;stop-opacity:1" />
    </linearGradient>
    
    <radialGradient id="highlightGradient" cx="50%" cy="30%" r="70%" fx="50%" fy="30%">
      <stop offset="0%" style="stop-color:#e63946;stop-opacity:0.3" />
      <stop offset="100%" style="stop-color:#000000;stop-opacity:0" />
    </radialGradient>
    
    <pattern id="diagonalPattern" patternUnits="userSpaceOnUse" width="10" height="10" patternTransform="rotate(45)">
      <rect width="6" height="6" fill="#333333"/>
    </pattern>
    
    <filter id="glow">
      <feGaussianBlur stdDeviation="5" result="blur" />
      <feComposite in="SourceGraphic" in2="blur" operator="over" />
    </filter>
  </defs>
  
  <!-- Background with texture -->
  <rect width="100%" height="100%" fill="url(#gradient1)" />
  <rect width="100%" height="100%" fill="url(#diagonalPattern)" opacity="0.05" />
  
  <!-- Dynamic accent lighting -->
  <circle cx="400" cy="200" r="220" fill="url(#highlightGradient)" />
  
  <!-- Diagonal accent lines -->
  <line x1="0" y1="0" x2="800" y2="600" stroke="#ffffff" stroke-width="1" opacity="0.1" />
  <line x1="800" y1="0" x2="0" y2="600" stroke="#ffffff" stroke-width="1" opacity="0.1" />
  
  <!-- Title with vertical text elements -->
  <g transform="translate(70, 300) rotate(-90)">
    <text font-family="Arial" font-size="20" fill="#ffffff" opacity="0.7">BRIDGE FITNESS</text>
  </g>
  
  <!-- Main title -->
  <text x="400" y="500" font-family="Arial" font-size="42" fill="white" text-anchor="middle" font-weight="bold" filter="url(#glow)">CROSSFIT COACH</text>
  
  <!-- Silhouette of a dynamic fitness trainer -->
  <g transform="translate(400, 240)">
    <!-- Head -->
    <circle cx="0" cy="-120" r="40" fill="#222" />
    
    <!-- Upper Body - more muscular and dynamic pose -->
    <path d="M0,-80 
             C30,-80 60,-70 70,-40 
             C75,-20 70,0 60,20 
             L40,60 L30,100 L30,150 
             L-30,150 L-30,100 L-40,60 
             L-60,20 C-70,0 -75,-20 -70,-40 
             C-60,-70 -30,-80 0,-80 Z" 
          fill="#111" />
    
    <!-- Arms - in action pose, one arm raised -->
    <path d="M60,0 
             C80,-10 100,-40 120,-20 
             C130,-10 135,10 120,30 
             C100,50 80,40 70,20 Z" 
          fill="#181818" />
          
    <path d="M-60,0 
             C-90,10 -120,30 -130,60 
             C-135,70 -130,80 -120,80 
             C-100,80 -80,50 -70,20 Z" 
          fill="#181818" />
    
    <!-- Fitness gear/accessories - subtle suggestion -->
    <rect x="-50" y="-20" width="100" height="10" rx="5" fill="#333" />
  </g>
  
  <!-- Equipment silhouette -->
  <g opacity="0.6">
    <circle cx="650" cy="400" r="40" fill="none" stroke="#ffffff" stroke-width="3" />
    <circle cx="650" cy="400" r="5" fill="#ffffff" />
    <rect x="600" y="395" width="100" height="10" rx="5" fill="#ffffff" />
  </g>
</svg>