<svg width="800" height="600" xmlns="http://www.w3.org/2000/svg">
  <defs>
    <linearGradient id="gradient2" x1="0%" y1="0%" x2="100%" y2="100%">
      <stop offset="0%" style="stop-color:#444444;stop-opacity:1" />
      <stop offset="100%" style="stop-color:#222222;stop-opacity:1" />
    </linearGradient>
    <radialGradient id="highlightGradient2" cx="50%" cy="30%" r="50%" fx="50%" fy="30%">
      <stop offset="0%" style="stop-color:#777777;stop-opacity:0.8" />
      <stop offset="100%" style="stop-color:#111111;stop-opacity:0" />
    </radialGradient>
  </defs>
  <rect width="100%" height="100%" fill="url(#gradient2)" />
  <circle cx="400" cy="200" r="150" fill="url(#highlightGradient2)" />
  <text x="400" y="500" font-family="Arial" font-size="36" fill="white" text-anchor="middle" font-weight="bold">CARDIO &amp; CONDITIONING</text>
  
  <!-- Silhouette of a female fitness trainer -->
  <path d="M400,100 C425,100 445,120 445,160 C445,200 425,220 400,220 C375,220 355,200 355,160 C355,120 375,100 400,100 Z" fill="#2a2a2a" />
  <path d="M370,220 C370,220 360,300 360,350 C360,380 370,420 380,450 L390,470 L390,480 L410,480 L410,470 L420,450 C430,420 440,380 440,350 C440,300 430,220 430,220 L400,240 Z" fill="#2a2a2a" />
</svg>