<svg width="800" height="600" xmlns="http://www.w3.org/2000/svg">
  <defs>
    <linearGradient id="gradientTraining2" x1="0%" y1="0%" x2="100%" y2="100%">
      <stop offset="0%" style="stop-color:#1a1a1a;stop-opacity:1" />
      <stop offset="100%" style="stop-color:#000000;stop-opacity:1" />
    </linearGradient>
    
    <radialGradient id="spotlightGradient" cx="50%" cy="50%" r="65%" fx="50%" fy="50%">
      <stop offset="0%" style="stop-color:#e63946;stop-opacity:0.3" />
      <stop offset="70%" style="stop-color:#000000;stop-opacity:0" />
    </radialGradient>
    
    <linearGradient id="metalGradient" x1="0%" y1="0%" x2="100%" y2="100%">
      <stop offset="0%" style="stop-color:#444444;stop-opacity:1" />
      <stop offset="50%" style="stop-color:#555555;stop-opacity:1" />
      <stop offset="100%" style="stop-color:#333333;stop-opacity:1" />
    </linearGradient>
    
    <pattern id="carbonPattern" patternUnits="userSpaceOnUse" width="10" height="10" patternTransform="rotate(45)">
      <rect width="10" height="10" fill="#222222"/>
      <rect width="5" height="5" fill="#2a2a2a"/>
    </pattern>
    
    <filter id="textGlow" x="-20%" y="-20%" width="140%" height="140%">
      <feGaussianBlur stdDeviation="6" result="blur" />
      <feComposite in="SourceGraphic" in2="blur" operator="over" />
    </filter>
    
    <filter id="innerShadow" x="-20%" y="-20%" width="140%" height="140%">
      <feGaussianBlur in="SourceAlpha" stdDeviation="4" result="blur"/>
      <feOffset in="blur" dx="0" dy="4" result="offsetBlur"/>
      <feComponentTransfer in="offsetBlur" result="invertedBlur">
        <feFuncA type="table" tableValues="1 0"/>
      </feComponentTransfer>
      <feFlood flood-color="black" flood-opacity="0.4" result="color"/>
      <feComposite in="color" in2="invertedBlur" operator="in" result="shadow"/>
      <feComposite in="shadow" in2="SourceGraphic" operator="over"/>
    </filter>
  </defs>
  
  <!-- Background with texture -->
  <rect width="100%" height="100%" fill="url(#gradientTraining2)" />
  <rect width="100%" height="100%" fill="url(#carbonPattern)" opacity="0.1" />
  
  <!-- Dynamic spotlight effect -->
  <circle cx="400" cy="300" r="250" fill="url(#spotlightGradient)" />
  
  <!-- Decorative grid elements -->
  <g opacity="0.1" stroke="#ffffff" stroke-width="1">
    <line x1="0" y1="100" x2="800" y2="100" />
    <line x1="0" y1="200" x2="800" y2="200" />
    <line x1="0" y1="300" x2="800" y2="300" />
    <line x1="0" y1="400" x2="800" y2="400" />
    <line x1="0" y1="500" x2="800" y2="500" />
    
    <line x1="100" y1="0" x2="100" y2="600" />
    <line x1="200" y1="0" x2="200" y2="600" />
    <line x1="300" y1="0" x2="300" y2="600" />
    <line x1="400" y1="0" x2="400" y2="600" />
    <line x1="500" y1="0" x2="500" y2="600" />
    <line x1="600" y1="0" x2="600" y2="600" />
    <line x1="700" y1="0" x2="700" y2="600" />
  </g>
  
  <!-- Accent elements -->
  <rect x="150" y="100" width="500" height="2" fill="#e63946" opacity="0.7" />
  <rect x="150" y="500" width="500" height="2" fill="#e63946" opacity="0.7" />
  
  <!-- Category label -->
  <text x="400" y="200" font-family="Arial" font-size="24" text-anchor="middle" fill="#ffffff" opacity="0.8" letter-spacing="6">TRAINING</text>
  
  <!-- STRENGTH text with enhanced styling -->
  <g filter="url(#textGlow)">
    <text x="400" y="300" font-family="Arial" font-size="90" text-anchor="middle" fill="#ffffff" font-weight="bold">STRENGTH</text>
  </g>
  
  <!-- Enhanced barbell and weight design -->
  <g transform="translate(400, 400)" filter="url(#innerShadow)">
    <!-- Central barbell with realistic weights -->
    <rect x="-200" y="-10" width="400" height="20" rx="5" fill="url(#metalGradient)" />
    
    <!-- Small weights -->
    <g transform="translate(-180, 0)">
      <rect x="-15" y="-30" width="30" height="60" rx="5" fill="#333333" />
      <rect x="-12" y="-27" width="24" height="54" rx="3" fill="#3c3c3c" />
      <circle cx="0" cy="0" r="5" fill="#222222" />
    </g>
    
    <g transform="translate(-140, 0)">
      <rect x="-15" y="-35" width="30" height="70" rx="5" fill="#333333" />
      <rect x="-12" y="-32" width="24" height="64" rx="3" fill="#3c3c3c" />
      <circle cx="0" cy="0" r="5" fill="#222222" />
    </g>
    
    <!-- Right side weights -->
    <g transform="translate(180, 0)">
      <rect x="-15" y="-30" width="30" height="60" rx="5" fill="#333333" />
      <rect x="-12" y="-27" width="24" height="54" rx="3" fill="#3c3c3c" />
      <circle cx="0" cy="0" r="5" fill="#222222" />
    </g>
    
    <g transform="translate(140, 0)">
      <rect x="-15" y="-35" width="30" height="70" rx="5" fill="#333333" />
      <rect x="-12" y="-32" width="24" height="64" rx="3" fill="#3c3c3c" />
      <circle cx="0" cy="0" r="5" fill="#222222" />
    </g>
    
    <!-- Large plates -->
    <g transform="translate(-230, 0)">
      <rect x="-20" y="-45" width="40" height="90" rx="5" fill="#333333" />
      <rect x="-16" y="-41" width="32" height="82" rx="3" fill="#3c3c3c" />
      <circle cx="0" cy="0" r="8" fill="#222222" />
      <!-- Shine effect -->
      <path d="M-10,-20 A30,30 0 0,1 10,20" stroke="#666666" stroke-width="2" fill="none" opacity="0.5" />
    </g>
    
    <g transform="translate(230, 0)">
      <rect x="-20" y="-45" width="40" height="90" rx="5" fill="#333333" />
      <rect x="-16" y="-41" width="32" height="82" rx="3" fill="#3c3c3c" />
      <circle cx="0" cy="0" r="8" fill="#222222" />
      <!-- Shine effect -->
      <path d="M-10,-20 A30,30 0 0,1 10,20" stroke="#666666" stroke-width="2" fill="none" opacity="0.5" />
    </g>
    
    <!-- Clips/locks -->
    <rect x="-125" y="-12" width="5" height="24" rx="2" fill="#e63946" opacity="0.8" />
    <rect x="120" y="-12" width="5" height="24" rx="2" fill="#e63946" opacity="0.8" />
  </g>
  
  <!-- Bottom line with BRIDGE branding -->
  <g transform="translate(700, 550)">
    <text x="0" y="0" font-family="Arial" font-size="12" fill="#666666" text-anchor="end">BRIDGE FITNESS</text>
  </g>
</svg>